<?xml version="1.0" encoding="UTF-8"?>
<!DOCTYPE svg PUBLIC "-//W3C//DTD SVG 1.1//EN" "http://www.w3.org/Graphics/SVG/1.1/DTD/svg11.dtd">
<svg xmlns="http://www.w3.org/2000/svg" version="1.1" width="648px" height="371px" style="shape-rendering:geometricPrecision; text-rendering:geometricPrecision; image-rendering:optimizeQuality; fill-rule:evenodd; clip-rule:evenodd" xmlns:xlink="http://www.w3.org/1999/xlink">
<g><path style="opacity:0.016" fill="#b7daf2" d="M 152.5,5.5 C 153.833,6.16667 153.833,6.16667 152.5,5.5 Z"/></g>
<g><path style="opacity:0.196" fill="#afd6f0" d="M 57.5,7.5 C 57.8966,6.47498 58.5632,6.30831 59.5,7C 58.9056,7.46434 58.2389,7.63101 57.5,7.5 Z"/></g>
<g><path style="opacity:1" fill="#1a89d8" d="M 636.5,317.5 C 634.614,321.624 632.614,325.791 630.5,330C 630.833,330.333 631.167,330.667 631.5,331C 627.2,335.786 623.533,340.953 620.5,346.5C 617.236,348.094 614.569,350.427 612.5,353.5C 605.388,358.054 597.721,361.554 589.5,364C 410.764,364.832 232.097,364.665 53.5,363.5C 51.9577,362.859 50.6243,361.859 49.5,360.5C 47.9547,359.548 46.288,359.215 44.5,359.5C 44.5,358.833 44.1667,358.5 43.5,358.5C 42.5994,356.273 40.9328,355.273 38.5,355.5C 22.6263,343.773 13.1263,328.106 10,308.5C 9.33333,227.167 9.33333,145.833 10,64.5C 10.9964,60.1843 11.8297,55.8509 12.5,51.5C 19.1933,34.4722 30.5266,21.4722 46.5,12.5C 51.3325,10.5405 56.3325,9.04052 61.5,8C 236.167,7.33333 410.833,7.33333 585.5,8C 613.486,12.9666 630.986,30.1332 638,59.5C 638.974,108.094 639.474,156.761 639.5,205.5C 638.673,240.792 638.173,276.125 638,311.5C 636.872,313.345 636.372,315.345 636.5,317.5 Z M 59.5,45.5 C 237.222,45.0038 414.889,45.5038 592.5,47C 595.645,48.9782 598.312,51.4782 600.5,54.5C 601.539,140.247 601.706,225.914 601,311.5C 597.019,319.414 590.852,324.914 582.5,328C 414.5,328.667 246.5,328.667 78.5,328C 63.1209,325.613 52.9543,317.113 48,302.5C 47.3333,220.833 47.3333,139.167 48,57.5C 49.4161,53.1012 52.4161,49.4345 57,46.5C 58.159,47.566 58.9924,47.2327 59.5,45.5 Z"/></g>
<g><path style="opacity:0.333" fill="#a9d2f2" d="M 592.5,7.5 C 593.833,8.16667 593.833,8.16667 592.5,7.5 Z"/></g>
<g><path style="opacity:0.118" fill="#95c9ed" d="M 46.5,12.5 C 45.8333,11.1667 45.8333,11.1667 46.5,12.5 Z"/></g>
<g><path style="opacity:0.149" fill="#b1d7f1" d="M 626.5,27.5 C 627.833,28.1667 627.833,28.1667 626.5,27.5 Z"/></g>
<g><path style="opacity:0.116" fill="#b2d8f1" d="M 628.5,34.5 C 628.897,33.475 629.563,33.3083 630.5,34C 629.906,34.4643 629.239,34.631 628.5,34.5 Z"/></g>
<g><path style="opacity:0.243" fill="#a8d5ef" d="M 12.5,51.5 C 11.8333,50.1667 11.8333,50.1667 12.5,51.5 Z"/></g>
<g><path style="opacity:0.192" fill="#add6ef" d="M 638.5,52.5 C 639.833,53.1667 639.833,53.1667 638.5,52.5 Z"/></g>
<g><path style="opacity:0.306" fill="#a9d3ee" d="M 642.5,68.5 C 643.833,69.1667 643.833,69.1667 642.5,68.5 Z"/></g>
<g><path style="opacity:1" fill="#1a89d8" d="M 76.5,69.5 C 82.1764,69.3339 87.8431,69.5006 93.5,70C 96,71.1667 97.8333,73 99,75.5C 99.6667,88.1667 99.6667,100.833 99,113.5C 97.8333,114.667 96.6667,115.833 95.5,117C 88.1667,117.667 80.8333,117.667 73.5,117C 71.8767,114.92 70.3767,112.754 69,110.5C 68.1498,99.4558 68.4832,88.4558 70,77.5C 72.0007,74.6693 74.1673,72.0026 76.5,69.5 Z"/></g>
<g><path style="opacity:0.999" fill="#1a89d8" d="M 127.5,70.5 C 150.064,64.0652 159.397,72.3986 155.5,95.5C 155.167,101.5 154.833,107.5 154.5,113.5C 153.618,114.76 152.618,115.926 151.5,117C 143.5,117.667 135.5,117.667 127.5,117C 124.989,114.821 122.822,112.321 121,109.5C 120.333,99.8333 120.333,90.1667 121,80.5C 122.178,76.4952 124.345,73.1619 127.5,70.5 Z"/></g>
<g><path style="opacity:1" fill="#1a89d8" d="M 207.5,71.5 C 207.932,72.7095 208.599,73.7095 209.5,74.5C 209.328,75.4916 209.662,76.1583 210.5,76.5C 211.12,90.08 210.453,103.413 208.5,116.5C 199.881,117.608 191.215,117.775 182.5,117C 181,116.167 179.833,115 179,113.5C 177.377,101.93 177.043,90.2636 178,78.5C 179.394,76.6125 180.56,74.6125 181.5,72.5C 189.994,68.8835 198.661,68.5502 207.5,71.5 Z"/></g>
<g><path style="opacity:0.997" fill="#1a89d8" d="M 243.5,69.5 C 249.176,69.3339 254.843,69.5006 260.5,70C 262.609,71.1411 264.442,72.6411 266,74.5C 267.607,87.0961 267.941,99.7628 267,112.5C 265.075,113.88 263.241,115.38 261.5,117C 253.479,117.832 245.479,117.665 237.5,116.5C 236.081,114.664 234.914,112.664 234,110.5C 233.333,99.8333 233.333,89.1667 234,78.5C 235.871,74.0064 239.038,71.0064 243.5,69.5 Z"/></g>
<g><path style="opacity:1" fill="#1a89d8" d="M 301.5,69.5 C 307.842,69.3338 314.175,69.5005 320.5,70C 323.267,70.6777 325.434,72.1777 327,74.5C 328.607,87.0961 328.941,99.7628 328,112.5C 327.215,114.286 326.049,115.786 324.5,117C 315.5,117.667 306.5,117.667 297.5,117C 295,115.833 293.167,114 292,111.5C 291.333,101.167 291.333,90.8333 292,80.5C 292.904,74.7695 296.071,71.1029 301.5,69.5 Z"/></g>
<g><path style="opacity:1" fill="#1a89d8" d="M 355.5,116.5 C 354.164,114.99 352.997,113.323 352,111.5C 351.042,99.4035 351.375,87.4035 353,75.5C 355.1,72.5332 357.934,70.6998 361.5,70C 368.276,69.0804 374.943,69.4137 381.5,71C 383.917,72.6626 385.75,74.8293 387,77.5C 387.833,89.8468 387.666,102.18 386.5,114.5C 385.354,115.145 384.354,115.978 383.5,117C 374.119,117.78 364.786,117.613 355.5,116.5 Z"/></g>
<g><path style="opacity:1" fill="#1a89d8" d="M 421.5,69.5 C 428.175,69.3337 434.842,69.5004 441.5,70C 445.667,71.5 448.5,74.3333 450,78.5C 450.667,90.1667 450.667,101.833 450,113.5C 448.833,114.667 447.667,115.833 446.5,117C 436.758,117.92 427.092,117.587 417.5,116C 415.667,114.167 413.833,112.333 412,110.5C 411.333,99.5 411.333,88.5 412,77.5C 414.161,73.4952 417.328,70.8286 421.5,69.5 Z"/></g>
<g><path style="opacity:1" fill="#1a89d8" d="M 483.5,69.5 C 488.844,69.334 494.177,69.5006 499.5,70C 503.388,72.2215 506.221,75.3882 508,79.5C 508.667,89.8333 508.667,100.167 508,110.5C 507.486,113.028 506.32,115.195 504.5,117C 496.833,117.667 489.167,117.667 481.5,117C 478.333,115.167 475.833,112.667 474,109.5C 473.333,99.1667 473.333,88.8333 474,78.5C 474.346,76.1523 475.513,74.3189 477.5,73C 479.727,72.059 481.727,70.8923 483.5,69.5 Z"/></g>
<g><path style="opacity:1" fill="#1a89d8" d="M 544.5,69.5 C 550.176,69.3339 555.843,69.5006 561.5,70C 566.273,71.7735 569.773,74.9402 572,79.5C 573.527,91.1232 573.861,102.79 573,114.5C 572.167,115.333 571.333,116.167 570.5,117C 559.167,117.667 547.833,117.667 536.5,117C 535,115.5 533.5,114 532,112.5C 530.378,101.264 530.045,89.9308 531,78.5C 533.883,72.739 538.383,69.739 544.5,69.5 Z"/></g>
<g><path style="opacity:0.999" fill="#1b89d8" d="M 81.5,141.5 C 93.1714,141.333 104.838,141.5 116.5,142C 119.927,143.431 122.76,145.598 125,148.5C 125.667,155.833 125.667,163.167 125,170.5C 123.157,174.377 120.324,177.21 116.5,179C 107.452,179.194 98.4524,179.694 89.5,180.5C 79.7744,180.268 73.2744,175.602 70,166.5C 66.8977,154.716 70.731,146.382 81.5,141.5 Z"/></g>
<g><path style="opacity:1" fill="#1c89d8" d="M 156.5,142.5 C 162.449,141.421 168.449,141.254 174.5,142C 178.667,143.5 181.5,146.333 183,150.5C 183.667,158.167 183.667,165.833 183,173.5C 179.094,178.558 173.927,180.891 167.5,180.5C 150.918,181.75 143.752,174.083 146,157.5C 147.381,150.962 150.881,145.962 156.5,142.5 Z"/></g>
<g><path style="opacity:1" fill="#1b89d8" d="M 215.5,141.5 C 221.842,141.334 228.175,141.5 234.5,142C 238.165,143.668 240.332,146.501 241,150.5C 241.667,157.833 241.667,165.167 241,172.5C 239.061,174.194 237.228,176.027 235.5,178C 227.5,178.667 219.5,178.667 211.5,178C 208.066,176.651 205.899,174.151 205,170.5C 204.333,163.833 204.333,157.167 205,150.5C 207.505,146.189 211.005,143.189 215.5,141.5 Z"/></g>
<g><path style="opacity:1" fill="#1a89d8" d="M 275.5,141.5 C 281.509,141.334 287.509,141.501 293.5,142C 296.927,143.431 299.76,145.598 302,148.5C 302.667,157.167 302.667,165.833 302,174.5C 301.5,175 301,175.5 300.5,176C 294.939,177.121 289.273,177.621 283.5,177.5C 278.5,177.333 273.5,177.167 268.5,177C 267.584,176.626 266.75,176.126 266,175.5C 264.391,166.602 264.058,157.602 265,148.5C 267.961,145.276 271.461,142.942 275.5,141.5 Z"/></g>
<g><path style="opacity:1" fill="#1b89d8" d="M 363.5,145.5 C 366.017,150.634 367.017,156.134 366.5,162C 366.333,165.833 366.167,169.667 366,173.5C 365.626,174.416 365.126,175.25 364.5,176C 353.264,177.622 341.931,177.955 330.5,177C 328.714,176.215 327.214,175.049 326,173.5C 320.248,147.251 330.748,136.751 357.5,142C 359.388,143.394 361.388,144.56 363.5,145.5 Z"/></g>
<g><path style="opacity:1" fill="#1a89d8" d="M 399.5,141.5 C 405.176,141.334 410.843,141.501 416.5,142C 424.977,146.382 428.31,153.382 426.5,163C 426.333,166.5 426.167,170 426,173.5C 425.535,174.931 424.701,176.097 423.5,177C 413.167,177.667 402.833,177.667 392.5,177C 391.234,176.691 390.067,176.191 389,175.5C 387.396,167.27 387.063,158.937 388,150.5C 390.683,145.922 394.517,142.922 399.5,141.5 Z"/></g>
<g><path style="opacity:1" fill="#1a89d8" d="M 462.5,141.5 C 468.509,141.334 474.509,141.501 480.5,142C 485.521,144.018 489.687,147.185 493,151.5C 495.258,158.978 494.925,166.311 492,173.5C 490.833,174.667 489.667,175.833 488.5,177C 477.5,177.667 466.5,177.667 455.5,177C 451.835,175.332 449.668,172.499 449,168.5C 444.612,154.606 449.112,145.606 462.5,141.5 Z"/></g>
<g><path style="opacity:1" fill="#1a89d8" d="M 531.5,141.5 C 543.171,141.333 554.838,141.5 566.5,142C 575.899,147.502 579.066,155.669 576,166.5C 574.57,172.261 571.07,176.095 565.5,178C 550.74,178.966 536.073,178.633 521.5,177C 515.798,170.555 513.964,163.055 516,154.5C 519.258,147.73 524.425,143.397 531.5,141.5 Z"/></g>
<g><path style="opacity:0.108" fill="#b3d8f1" d="M 6.5,153.5 C 7.57346,154.251 7.74012,155.251 7,156.5C 6.51722,155.552 6.35055,154.552 6.5,153.5 Z"/></g>
<g><path style="opacity:0.333" fill="#a9d2f0" d="M 639.5,179.5 C 640.525,179.897 640.692,180.563 640,181.5C 639.536,180.906 639.369,180.239 639.5,179.5 Z"/></g>
<g><path style="opacity:0.997" fill="#1b89d8" d="M 182.5,208.5 C 183.833,216.5 183.833,224.5 182.5,232.5C 179.85,234.479 177.85,236.479 176.5,238.5C 169.947,238.532 163.28,238.366 156.5,238C 153.435,237.632 150.768,236.465 148.5,234.5C 147.618,232.916 146.785,231.249 146,229.5C 143.043,205.462 153.21,196.962 176.5,204C 178.66,205.332 180.66,206.832 182.5,208.5 Z"/></g>
<g><path style="opacity:1" fill="#1a89d8" d="M 209.5,237.5 C 205.102,232.96 203.436,227.46 204.5,221C 202.947,206.553 209.447,200.053 224,201.5C 232.048,200.353 237.715,203.353 241,210.5C 241.896,218.246 241.563,225.913 240,233.5C 238.833,234.667 237.667,235.833 236.5,237C 227.506,237.5 218.506,237.666 209.5,237.5 Z"/></g>
<g><path style="opacity:1" fill="#1b89d8" d="M 275.5,201.5 C 281.509,201.334 287.509,201.501 293.5,202C 299.193,203.697 302.36,207.531 303,213.5C 303.667,219.167 303.667,224.833 303,230.5C 302.767,232.78 301.934,234.78 300.5,236.5C 290.547,237.641 280.547,237.808 270.5,237C 268.671,236.727 267.171,235.893 266,234.5C 264.399,226.605 264.066,218.605 265,210.5C 267.468,206.199 270.968,203.199 275.5,201.5 Z"/></g>
<g><path style="opacity:1" fill="#1a89d8" d="M 334.5,201.5 C 362.232,197.727 372.232,209.227 364.5,236C 358.605,237.124 352.605,237.624 346.5,237.5C 341.167,237.333 335.833,237.167 330.5,237C 327.898,235.985 326.065,234.152 325,231.5C 324.333,224.833 324.333,218.167 325,211.5C 326.714,206.738 329.881,203.405 334.5,201.5 Z"/></g>
<g><path style="opacity:0.999" fill="#1a89d8" d="M 418.5,202.5 C 421.529,204.372 423.695,207.039 425,210.5C 425.667,218.167 425.667,225.833 425,233.5C 424.167,235 423,236.167 421.5,237C 411.46,237.795 401.46,237.462 391.5,236C 389.959,234.421 388.792,232.587 388,230.5C 383.172,205.167 393.339,195.833 418.5,202.5 Z"/></g>
<g><path style="opacity:1" fill="#1a89d8" d="M 461.5,201.5 C 469.84,201.334 478.173,201.5 486.5,202C 490.659,203.493 493.493,206.326 495,210.5C 496.055,217.686 495.388,224.686 493,231.5C 490.9,234.467 488.066,236.3 484.5,237C 475.5,237.667 466.5,237.667 457.5,237C 453.074,234.002 450.241,229.835 449,224.5C 445.981,212.617 450.148,204.95 461.5,201.5 Z"/></g>
<g><path style="opacity:1" fill="#1a89d8" d="M 525.5,201.5 C 539.504,201.333 553.504,201.5 567.5,202C 573.947,204.731 576.947,209.565 576.5,216.5C 577.091,225.492 573.424,231.992 565.5,236C 552.167,236.667 538.833,236.667 525.5,236C 515.593,229.149 512.759,219.983 517,208.5C 519.464,205.519 522.297,203.186 525.5,201.5 Z"/></g>
<g><path style="opacity:1" fill="#1c89d8" d="M 121.5,205.5 C 122.575,208.081 124.242,210.247 126.5,212C 125.688,218.085 125.188,224.252 125,230.5C 124.722,231.416 124.222,232.082 123.5,232.5C 120.596,235.787 116.929,237.787 112.5,238.5C 101.093,238.122 89.7596,237.122 78.5,235.5C 78.1583,234.662 77.4916,234.328 76.5,234.5C 75.0364,232.063 73.0364,230.23 70.5,229C 71.5532,227.251 71.2199,225.751 69.5,224.5C 69.0912,219.308 69.7579,214.308 71.5,209.5C 73.7361,207.107 76.4027,205.273 79.5,204C 92.1667,203.333 104.833,203.333 117.5,204C 118.745,204.791 120.078,205.291 121.5,205.5 Z"/></g>
<g><path style="opacity:0.275" fill="#a3d0ef" d="M 76.5,234.5 C 77.4916,234.328 78.1583,234.662 78.5,235.5C 78.5,236.167 78.1667,236.5 77.5,236.5C 77.1667,235.833 76.8333,235.167 76.5,234.5 Z"/></g>
<g><path style="opacity:1" fill="#1a89d8" d="M 499.5,243.5 C 502.119,243.232 504.619,243.565 507,244.5C 507.302,250.533 507.802,256.533 508.5,262.5C 524.707,264.191 531.207,273.191 528,289.5C 523.126,300.688 514.626,305.188 502.5,303C 487.346,298.795 481.846,288.962 486,273.5C 486.792,271.413 487.959,269.579 489.5,268C 492.964,266.191 496.131,264.024 499,261.5C 499.499,255.509 499.666,249.509 499.5,243.5 Z"/></g>
<g><path style="opacity:1" fill="#1e89d8" d="M 71.5,268.5 C 80.3167,260.538 89.15,260.538 98,268.5C 98.4186,269.672 99.0853,270.672 100,271.5C 100.204,278.217 100.704,284.883 101.5,291.5C 100.714,297.229 100.38,303.229 100.5,309.5C 94.4908,309.666 88.4908,309.499 82.5,309C 82.9239,306.051 83.0906,302.884 83,299.5C 78.4242,294.013 74.0909,288.347 70,282.5C 69.0344,277.61 69.5344,272.943 71.5,268.5 Z"/></g>
<g><path style="opacity:1" fill="#1c89d8" d="M 558.5,262.5 C 568.735,259.861 575.235,263.528 578,273.5C 579.815,285.359 575.982,294.859 566.5,302C 561.442,303.01 556.609,302.51 552,300.5C 549.041,290.296 548.707,279.963 551,269.5C 552.742,266.254 555.242,263.921 558.5,262.5 Z"/></g>
<g><path style="opacity:1" fill="#1b89d8" d="M 166.5,263.5 C 168.273,264.892 170.273,266.059 172.5,267C 171.72,268.073 171.887,269.24 173,270.5C 173.667,278.167 173.667,285.833 173,293.5C 171.789,296.759 169.956,299.592 167.5,302C 155.833,302.667 144.167,302.667 132.5,302C 128.25,297.944 125.583,293.944 124.5,290C 118.541,280.888 119.541,272.721 127.5,265.5C 130.422,264.351 133.422,263.351 136.5,262.5C 146.272,263.322 156.272,263.655 166.5,263.5 Z"/></g>
<g><path style="opacity:1" fill="#1a89d8" d="M 206.5,263.5 C 288.167,263.333 369.834,263.5 451.5,264C 455.667,265.5 458.5,268.333 460,272.5C 461.484,278.765 461.818,285.098 461,291.5C 459.262,295.241 456.762,298.408 453.5,301C 369.833,301.667 286.167,301.667 202.5,301C 198.961,299.093 196.461,296.26 195,292.5C 193.644,284.471 194.644,276.805 198,269.5C 200.637,267.109 203.47,265.109 206.5,263.5 Z"/></g>
<g><path style="opacity:0.275" fill="#aad4ef" d="M 636.5,317.5 C 637.833,318.167 637.833,318.167 636.5,317.5 Z"/></g>
<g><path style="opacity:0.216" fill="#afd5ef" d="M 634.5,323.5 C 635.833,324.167 635.833,324.167 634.5,323.5 Z"/></g>
<g><path style="opacity:0.31" fill="#a9d3f0" d="M 620.5,346.5 C 621.833,347.167 621.833,347.167 620.5,346.5 Z"/></g>
<g><path style="opacity:0.071" fill="#b4d9f2" d="M 612.5,353.5 C 613.833,354.167 613.833,354.167 612.5,353.5 Z"/></g>
<g><path style="opacity:0.824" fill="#70b4e6" d="M 38.5,355.5 C 40.9328,355.273 42.5994,356.273 43.5,358.5C 41.5659,357.89 39.8993,356.89 38.5,355.5 Z"/></g>
<g><path style="opacity:0.729" fill="#6fb3e5" d="M 44.5,359.5 C 46.288,359.215 47.9547,359.548 49.5,360.5C 50.6243,361.859 51.9577,362.859 53.5,363.5C 52.1266,363.657 50.7932,363.49 49.5,363C 48.0445,361.374 46.3779,360.208 44.5,359.5 Z"/></g>
</svg>
